<?xml version="1.0" encoding="UTF-8" standalone="no"?>
<!-- Created with Inkscape (http://www.inkscape.org/) -->

<svg
   width="162.56006mm"
   height="40.879105mm"
   viewBox="0 0 162.56006 40.879105"
   version="1.1"
   id="svg1"
   xml:space="preserve"
   xmlns="http://www.w3.org/2000/svg"
   xmlns:svg="http://www.w3.org/2000/svg"><defs
     id="defs1"><linearGradient
       id="swatch34"><stop
         style="stop-color:#000000;stop-opacity:1;"
         offset="0"
         id="stop34" /></linearGradient></defs><g
     id="layer1"
     transform="translate(-17.965175,-63.366735)"><path
       id="rect60"
       style="fill:#2cda9d;stroke-width:2;stroke-linejoin:bevel;paint-order:stroke fill markers"
       d="m 56.734642,78.624008 h 9.588289 c 0.02591,0 0.04678,0.333767 0.04678,0.748356 v 23.245776 c 0,0.41459 -0.02086,0.74835 -0.04678,0.74835 h -9.588289 c -0.02591,0 -0.04678,-0.33376 -0.04678,-0.74835 V 79.372364 c 0,-0.414589 0.02086,-0.748356 0.04678,-0.748356 z" /><path
       id="rect60-7"
       style="fill:#564d65;stroke-width:2;stroke-linejoin:bevel;paint-order:stroke fill markers"
       d="m 85.71859,78.633957 h 9.588289 c 0.02591,0 0.04678,0.333767 0.04678,0.748356 v 23.245777 c 0,0.41459 -0.02086,0.74835 -0.04678,0.74835 H 85.71859 c -0.02591,0 -0.04678,-0.33376 -0.04678,-0.74835 V 79.382313 c 0,-0.414589 0.02086,-0.748356 0.04678,-0.748356 z" /><path
       style="font-size:333.333px;line-height:0;font-family:STIX;-inkscape-font-specification:'STIX, Normal';text-align:center;text-anchor:middle;white-space:pre;fill:#1a181b;fill-opacity:1;stroke-width:7.55906;stroke-linejoin:bevel;paint-order:stroke fill markers"
       d="m 340.5002,172.99997 c 8.33332,-14.33332 15.66665,-24.33331 31.3333,-24.33331 23.66664,0 45.33329,18.66665 70.33326,18.66665 25.33331,0 35.99997,-14.33332 47.66662,-37.33329 l -16.33331,-8.66666 c -8.33333,14.33332 -15.66665,24.33331 -31.33331,24.33331 -23.33331,0 -45.33328,-18.66665 -70.33326,-18.66665 -25.33331,0 -35.99996,14.33332 -47.66662,37.3333 z"
       id="text47"
       transform="matrix(0.27817794,0,-0.36548282,0.26458333,16.175088,31.263947)"
       aria-label="~" /><g
       id="text50"
       style="font-size:52.9167px;line-height:0;font-family:'Abril Fatface';-inkscape-font-specification:'Abril Fatface, Normal';text-align:center;text-anchor:middle;fill:#1a181b;fill-opacity:1;stroke-width:2;stroke-linejoin:bevel;paint-order:stroke fill markers"
       aria-label="Sooma"><path
         d="m 32.464352,103.13458 q 2.645835,0 4.656669,-1.42875 2.063752,-1.42875 2.063752,-4.28625 0,-2.910418 -2.222502,-4.445003 -2.169584,-1.534584 -6.24417,-2.645835 -4.021669,-1.164167 -5.873754,-2.010834 -1.799167,-0.846667 -3.439585,-2.222501 -3.280835,-2.751669 -3.280835,-8.519589 0,-4.709586 3.333752,-8.096255 3.386668,-3.386668 9.207505,-3.386668 2.804585,0 5.820837,0.846667 3.069169,0.79375 3.810002,0.79375 0.740834,0 1.322918,-1.058334 h 0.582084 l 0.370416,10.689173 h -0.846667 q -2.540001,-4.603752 -5.344586,-7.355421 -2.751669,-2.804585 -6.032504,-2.804585 -3.227919,0 -5.027086,1.534584 -1.799168,1.481668 -1.799168,4.02167 0,2.487084 2.116668,3.862919 2.169585,1.322917 5.29167,2.169584 3.122085,0.846667 4.074586,1.164168 1.005417,0.3175 2.434168,0.899583 1.481667,0.529167 2.381251,1.164168 0.952501,0.582083 1.957918,1.534584 1.058334,0.899584 1.640418,2.010835 1.42875,2.540001 1.42875,6.032503 0,5.715004 -3.598335,9.207507 -3.545419,3.43958 -9.366256,3.43958 -3.016251,0 -6.932087,-0.79375 -3.862919,-0.79375 -4.286253,-0.79375 -0.740834,0 -1.428751,1.5875 H 18.494344 L 17.965177,91.65166 h 0.899584 q 2.328334,4.603753 5.92667,8.043338 3.651252,3.439582 7.672921,3.439582 z"
         id="path69"
         style="fill:#1a181b;fill-opacity:1" /><path
         style="fill:#2cda9d;fill-opacity:1"
         d="m 64.637726,93.292078 v -4.49792 q 0,-5.13292 -0.582084,-7.461254 -0.529167,-2.381252 -2.540002,-2.381252 -1.164167,0 -1.905001,0.687917 -0.687917,0.635001 -1.005417,2.169585 -0.47625,2.381251 -0.47625,7.249588 v 4.127502 q 0,5.76792 0.3175,6.932086 0.370417,1.16417 0.740834,1.905 0.582083,1.27 2.275418,1.27 2.063751,0 2.698751,-2.38125 0.476251,-1.693332 0.476251,-7.620002 z M 61.35689,104.24583 q -6.614587,0 -10.001256,-3.38666 -3.386668,-3.386673 -3.386668,-9.68376 0,-6.350004 3.598335,-9.736673 3.651252,-3.439585 10.212923,-3.439585 6.561671,0 9.789589,3.175002 3.227919,3.122085 3.227919,9.577922 0,13.493754 -13.440842,13.493754 z"
         id="path70" /><path
         style="fill:#564d65;fill-opacity:1"
         d="m 93.371454,93.292078 v -4.49792 q 0,-5.13292 -0.582084,-7.461254 -0.529167,-2.381252 -2.540001,-2.381252 -1.164168,0 -1.905001,0.687917 -0.687917,0.635001 -1.005418,2.169585 -0.47625,2.381251 -0.47625,7.249588 v 4.127502 q 0,5.76792 0.3175,6.932086 0.370417,1.16417 0.740834,1.905 0.582084,1.27 2.275418,1.27 2.063751,0 2.698752,-2.38125 0.47625,-1.693332 0.47625,-7.620002 z m -3.280835,10.953752 q -6.614588,0 -10.001256,-3.38666 -3.386669,-3.386673 -3.386669,-9.68376 0,-6.350004 3.598336,-9.736673 3.651252,-3.439585 10.212922,-3.439585 6.561671,0 9.789588,3.175002 3.22792,3.122085 3.22792,9.577922 0,13.493754 -13.440841,13.493754 z"
         id="path71" /><path
         d="m 105.01309,78.528319 h 12.75293 v 4.868336 q 1.74625,-5.397503 7.67292,-5.397503 5.97958,0 7.24958,5.715003 1.85209,-5.715003 7.77876,-5.715003 7.77875,0 7.77875,8.837088 v 15.92793 h 2.96334 v 0.9525 h -14.65793 v -0.9525 h 1.85209 V 85.56624 q 0,-4.021669 -0.68792,-4.709587 -0.3175,-0.3175 -0.84667,-0.3175 -1.53458,0 -2.69875,2.063751 -1.16417,2.063752 -1.16417,5.238754 v 14.922512 h 1.90501 v 0.9525 h -13.5996 v -0.9525 h 1.85209 V 85.56624 q 0,-4.021669 -0.68792,-4.709587 -0.3175,-0.3175 -0.84667,-0.3175 -1.48166,0 -2.69875,2.275418 -1.16416,2.222502 -1.16416,5.344587 v 14.605012 h 1.905 v 0.9525 h -14.65793 v -0.9525 h 2.91042 V 79.480819 h -2.91042 z m 59.69006,12.752924 h 1.53458 v -4.074586 q 0,-5.027086 -0.58208,-6.72042 -0.52917,-1.746251 -2.11667,-1.746251 -0.9525,0 -1.74625,0.529166 -0.74083,0.476251 -0.74083,1.375835 0,0.846667 0.3175,1.746251 h 1.32292 q 0.42333,1.11125 0.42333,2.698751 0,1.534585 -1.32292,2.698752 -1.32292,1.111251 -3.33375,1.111251 -4.55084,0 -4.55084,-4.392086 0,-6.508754 11.05959,-6.508754 6.29709,0 8.67834,2.169584 2.43417,2.116668 2.43417,7.831672 v 10.74209 q 0,2.751672 1.53458,2.751672 1.79917,0 2.11667,-5.450424 l 0.79375,0.05292 q -0.21166,4.656664 -1.74625,6.402914 -1.53458,1.74625 -5.02708,1.74625 -6.35001,0 -7.30251,-3.91583 -0.68792,2.01083 -2.06375,2.96333 -1.37583,0.9525 -4.02167,0.9525 -7.83167,0 -7.83167,-6.402913 0,-3.757086 2.96333,-5.13292 3.01626,-1.428751 9.20751,-1.428751 z m -2.11667,6.508754 q 0,2.751673 0.26459,3.545423 0.3175,0.79375 1.11125,0.79375 0.84666,0 1.53458,-1.32292 0.74083,-1.375835 0.74083,-3.757087 V 92.12791 h -0.37041 q -3.28084,0 -3.28084,4.81542 z"
         id="path72"
         style="fill:#1a181b;fill-opacity:1" /></g></g></svg>
