<?xml version="1.0" encoding="UTF-8" standalone="no"?>
<!-- Created with Inkscape (http://www.inkscape.org/) -->

<svg
   width="174.43201mm"
   height="48.35025mm"
   viewBox="0 0 174.43201 48.35025"
   version="1.1"
   id="svg1"
   xmlns:inkscape="http://www.inkscape.org/namespaces/inkscape"
   xmlns:sodipodi="http://sodipodi.sourceforge.net/DTD/sodipodi-0.dtd"
   xmlns:xlink="http://www.w3.org/1999/xlink"
   xmlns="http://www.w3.org/2000/svg"
   xmlns:svg="http://www.w3.org/2000/svg">
  <sodipodi:namedview
     id="namedview1"
     pagecolor="#000000"
     bordercolor="#000000"
     borderopacity="0.25"
     inkscape:showpageshadow="2"
     inkscape:pageopacity="0.0"
     inkscape:pagecheckerboard="0"
     inkscape:deskcolor="#d1d1d1"
     inkscape:document-units="mm">
    <inkscape:page
       x="0"
       y="0"
       width="174.43201"
       height="48.35025"
       id="page2"
       margin="0"
       bleed="0" />
  </sodipodi:namedview>
  <defs
     id="defs1">
    <linearGradient
       id="linearGradient9"
       inkscape:collect="always">
      <stop
         style="stop-color:#2cda9d;stop-opacity:1;"
         offset="0"
         id="stop10" />
      <stop
         style="stop-color:#564d65;stop-opacity:1;"
         offset="0.5"
         id="stop11" />
    </linearGradient>
    <linearGradient
       inkscape:collect="always"
       xlink:href="#linearGradient9"
       id="linearGradient11"
       x1="118.26216"
       y1="20.915119"
       x2="178.23416"
       y2="20.915119"
       gradientUnits="userSpaceOnUse" />
  </defs>
  <g
     inkscape:label="Layer 1"
     inkscape:groupmode="layer"
     id="layer1"
     transform="translate(-16.454679,-62.843117)">
    <path
       id="rect11"
       style="fill:#2cda9d;stroke-width:4;stroke-linejoin:bevel;paint-order:stroke fill markers"
       d="m 47.787895,81.411163 h 19.505434 c 0.02591,0 0.04678,0.333767 0.04678,0.748356 v 23.378921 c 0,0.41459 -0.02086,0.74836 -0.04678,0.74836 H 47.787895 c -0.02591,0 -0.04678,-0.33377 -0.04678,-0.74836 V 82.159519 c 0,-0.414589 0.02086,-0.748356 0.04678,-0.748356 z"
       inkscape:export-filename="logo-light-1.svg"
       inkscape:export-xdpi="96"
       inkscape:export-ydpi="96" />
    <path
       id="rect11-5"
       style="fill:#564d65;stroke-width:4;stroke-linejoin:bevel;paint-order:stroke fill markers"
       inkscape:label="rect11-5"
       d="m 81.330833,81.150902 h 19.505437 c 0.0259,0 0.0468,0.333766 0.0468,0.748356 v 23.378922 c 0,0.41459 -0.0209,0.74836 -0.0468,0.74836 H 81.330833 c -0.02591,0 -0.04677,-0.33377 -0.04677,-0.74836 V 81.899258 c 0,-0.41459 0.02086,-0.748356 0.04677,-0.748356 z" />
    <g
       id="text2"
       style="font-size:50.8px;line-height:0;font-family:'Archivo Black';-inkscape-font-specification:'Archivo Black, Normal';text-align:center;letter-spacing:-5.82083px;text-anchor:middle;fill:#eaeaea;stroke-width:4;stroke-linejoin:bevel;paint-order:stroke fill markers"
       aria-label="sooma">
      <path
         style="font-size:63.5px;font-family:Sans;-inkscape-font-specification:'Sans, @wght=600';font-variation-settings:'wght' 600"
         d="m 41.98168,100.65237 q 0,3.302 -1.5875,5.6515 -1.5875,2.3495 -4.699,3.6195 -3.1115,1.27 -7.747,1.27 -3.683,0 -6.4135,-0.508 -2.667,-0.508 -5.0165,-1.5875 v -6.858 q 2.4765,1.2065 5.588,2.032 3.1115,0.762 5.715,0.762 3.429,0 4.953,-1.016 1.524,-1.016 1.524,-2.7305 0,-1.0795 -0.6985,-1.904998 -0.635,-0.889 -2.413,-1.778 -1.7145,-0.889 -4.8895,-2.159 -3.175,-1.27 -5.3975,-2.6035 -2.159,-1.3335 -3.302,-3.175 -1.143,-1.8415 -1.143,-4.699 0,-4.572 3.683,-6.985 3.683,-2.4765 9.7155,-2.4765 3.2385,0 6.0325,0.6985 2.8575,0.635 5.588,1.8415 l -2.413,5.715 q -2.3495,-1.016 -4.826,-1.651 -2.4765,-0.6985 -4.6355,-0.6985 -2.6035,0 -4.064,0.8255 -1.397,0.8255 -1.397,2.286 0,1.0795 0.6985,1.905 0.762,0.8255 2.54,1.651 1.778,0.8255 4.8895,2.032 3.1115,1.2065 5.2705,2.54 2.2225,1.3335 3.302,3.2385 1.143,1.8415 1.143,4.762498 z m 32.914173,-7.365998 q 0,4.318 -1.143,7.619998 -1.143,3.302 -3.302,5.588 -2.159,2.286 -5.207,3.4925 -3.048,1.2065 -6.858,1.2065 -3.556,0 -6.5405,-1.2065 -2.9845,-1.2065 -5.1435,-3.4925 -2.159,-2.286 -3.429,-5.588 -1.2065,-3.301998 -1.2065,-7.619998 0,-5.715 1.9685,-9.652 2.032,-4.0005 5.715,-6.0325 3.683,-2.0955 8.8265,-2.0955 4.826,0 8.4455,2.0955 3.683,2.032 5.7785,6.0325 2.0955,3.937 2.0955,9.652 z m -24.5745,0 q 0,3.6195 0.8255,6.223 0.889,2.603498 2.667,4.000498 1.8415,1.397 4.699,1.397 2.8575,0 4.6355,-1.397 1.8415,-1.397 2.667,-4.000498 0.8255,-2.6035 0.8255,-6.223 0,-3.683 -0.889,-6.223 -0.8255,-2.54 -2.6035,-3.8735 -1.778,-1.397 -4.699,-1.397 -4.2545,0 -6.223,3.048 -1.905,2.9845 -1.905,8.4455 z"
         id="path18" />
      <path
         style="font-size:63.5px;font-family:Sans;-inkscape-font-specification:'Sans, @wght=600';font-variation-settings:'wght' 600;letter-spacing:-7.40833px;word-spacing:0px"
         d="m 108.25456,93.286372 q 0,4.318 -1.143,7.619998 -1.143,3.302 -3.302,5.588 -2.159,2.286 -5.207003,3.4925 -3.048,1.2065 -6.858,1.2065 -3.556,0 -6.5405,-1.2065 -2.9845,-1.2065 -5.1435,-3.4925 -2.159,-2.286 -3.429,-5.588 -1.2065,-3.301998 -1.2065,-7.619998 0,-5.715 1.9685,-9.652 2.032,-4.0005 5.715,-6.0325 3.683,-2.0955 8.8265,-2.0955 4.826,0 8.445503,2.0955 3.683,2.032 5.7785,6.0325 2.0955,3.937 2.0955,9.652 z m -24.574503,0 q 0,3.6195 0.8255,6.223 0.889,2.603498 2.667,4.000498 1.8415,1.397 4.699,1.397 2.8575,0 4.6355,-1.397 1.8415,-1.397 2.667,-4.000498 0.8255,-2.6035 0.8255,-6.223 0,-3.683 -0.889,-6.223 -0.8255,-2.54 -2.6035,-3.8735 -1.778,-1.397 -4.699,-1.397 -4.2545,0 -6.223,3.048 -1.905,2.9845 -1.905,8.4455 z"
         id="path19" />
      <path
         style="font-size:63.5px;font-family:Sans;-inkscape-font-specification:'Sans, @wght=600';font-variation-settings:'wght' 600;letter-spacing:-6.47965px"
         d="m 148.40776,75.506372 q 5.842,0 8.8265,2.9845 2.9845,2.9845 2.9845,9.652 v 22.415498 h -8.001 V 89.730372 q 0,-4.0005 -1.4605,-5.842 -1.4605,-1.905 -4.445,-1.905 -4.191,0 -5.969,2.794 -1.7145,2.7305 -1.7145,7.874 v 17.906998 h -8.0645 V 89.730372 q 0,-2.667 -0.635,-4.318 -0.635,-1.7145 -1.9685,-2.54 -1.27,-0.889 -3.302,-0.889 -2.921,0 -4.572,1.397 -1.651,1.397 -2.3495,4.0005 -0.6985,2.6035 -0.6985,6.4135 v 16.763998 h -8.0645 V 76.141372 h 6.2865 l 1.143,4.5085 h 0.3175 q 1.0795,-1.651 2.54,-2.794 1.524,-1.2065 3.4925,-1.778 1.9685,-0.5715 4.191,-0.5715 3.8735,0 6.477,1.397 2.6035,1.3335 4.0005,4.0005 h 0.3175 q 1.7145,-2.7305 4.5085,-4.064 2.8575,-1.3335 6.1595,-1.3335 z"
         id="path20" />
      <path
         style="font-size:63.5px;font-family:Sans;-inkscape-font-specification:'Sans, @wght=600';font-variation-settings:'wght' 600"
         d="m 177.93268,75.506372 q 6.4135,0 9.652,2.9845 3.302,2.921 3.302,8.9535 v 23.113998 h -5.715 l -1.524,-4.7625 h -0.254 q -1.4605,1.8415 -3.048,3.1115 -1.524,1.2065 -3.556,1.7145 -2.032,0.5715 -4.8895,0.5715 -3.048,0 -5.5245,-1.143 -2.413,-1.143 -3.81,-3.4925 -1.397,-2.3495 -1.397,-5.9055 0,-5.333998 3.937,-8.064498 4.0005,-2.794 12.0015,-3.048 l 5.7785,-0.1905 v -1.4605 q 0,-3.556 -1.5875,-4.953 -1.524,-1.397 -4.3815,-1.397 -2.4765,0 -4.953,0.8255 -2.413,0.762 -4.699,1.778 l -2.413,-5.6515 q 2.54,-1.27 5.842,-2.0955 3.3655,-0.889 7.239,-0.889 z m 0.762,18.9865 q -5.207,0.127 -7.239,1.651 -1.9685,1.524 -1.9685,4.254498 0,2.413 1.397,3.6195 1.4605,1.143 3.7465,1.143 3.4925,0 5.842,-1.9685 2.413,-2.032 2.413,-5.968998 v -2.921 z"
         id="path21" />
    </g>
    <path
       d="m 136.01377,14.258338 q 3.8382,0 13.79356,2.9986 10.07529,2.878656 13.31378,2.878656 5.9972,0 12.59412,-4.79776 1.43933,0.839608 2.51882,2.278936 -2.39888,3.718264 -6.59692,6.836808 -4.19804,3.118544 -9.23568,3.118544 -4.91771,0 -15.11295,-2.9986 -10.19524,-2.9986 -14.15339,-2.9986 -5.9972,0 -12.35423,4.79776 -1.55927,-0.839608 -2.51883,-2.518824 8.27614,-9.59552 17.75172,-9.59552 z"
       id="text4"
       style="font-size:119.944px;line-height:0;font-family:Caladea;-inkscape-font-specification:'Caladea, Normal';text-align:center;text-anchor:middle;white-space:pre;inline-size:87.5623;fill:url(#linearGradient11);stroke-width:4;stroke-linejoin:bevel;paint-order:stroke fill markers"
       aria-label="~"
       transform="matrix(1.0207983,-0.06329938,-0.46725154,0.7342871,-65.96648,62.703407)" />
  </g>
</svg>
